<?xml version="1.0" encoding="iso-8859-1"?>
<!-- Generator: Adobe Illustrator 18.0.0, SVG Export Plug-In . SVG Version: 6.00 Build 0)  -->
<!DOCTYPE svg PUBLIC "-//W3C//DTD SVG 1.1//EN" "http://www.w3.org/Graphics/SVG/1.1/DTD/svg11.dtd">
<svg version="1.1" id="Capa_1" xmlns="http://www.w3.org/2000/svg" xmlns:xlink="http://www.w3.org/1999/xlink" x="0px" y="0px"
	 viewBox="0 0 297 297" style="enable-background:new 0 0 297 297;" xml:space="preserve">
<g>
	<path d="M289.102,250.905l-80.096-80.096c26.144-43.301,20.556-100.537-16.778-137.871c-43.916-43.916-115.374-43.917-159.291,0
		c-43.916,43.916-43.916,115.374,0,159.291c21.958,21.958,50.802,32.937,79.645,32.937c20.198,0,40.393-5.391,58.227-16.159
		l80.097,80.096c5.265,5.264,12.181,7.898,19.097,7.897c6.917,0,13.834-2.632,19.099-7.897
		C299.633,278.572,299.633,261.436,289.102,250.905z M46.916,178.25c-36.209-36.209-36.209-95.124,0-131.333
		c18.104-18.105,41.886-27.157,65.666-27.157c23.782,0,47.563,9.052,65.667,27.157c36.209,36.209,36.209,95.124,0,131.333
		C142.042,214.46,83.125,214.462,46.916,178.25z M275.124,275.124c-2.823,2.821-7.418,2.823-10.241,0l-77.945-77.945
		c1.802-1.586,3.569-3.231,5.289-4.951c1.72-1.72,3.365-3.488,4.951-5.289l77.945,77.945
		C277.947,267.707,277.947,272.301,275.124,275.124z"/>
	<path d="M187.717,98.687c-1.866-2.501-4.803-3.975-7.924-3.975h-6.659l-24.839-24.839c0.064-0.542,0.106-1.091,0.106-1.651
		c0-7.717-6.279-13.996-13.996-13.996c-7.717,0-13.995,6.279-13.995,13.996c0,7.085,5.296,12.943,12.135,13.857l12.632,12.632
		H79.988l12.632-12.632c6.839-0.915,12.135-6.773,12.135-13.857c0-7.717-6.278-13.996-13.995-13.996s-13.996,6.279-13.996,13.996
		c0,0.559,0.042,1.108,0.106,1.651L52.03,94.712h-6.66c-3.121,0-6.058,1.474-7.924,3.975c-1.865,2.502-2.44,5.737-1.55,8.729
		l16.803,56.458c1.248,4.191,5.101,7.065,9.474,7.065H162.99c4.373,0,8.226-2.874,9.474-7.065l16.803-56.458
		C190.157,104.425,189.582,101.189,187.717,98.687z M155.62,151.17H69.544l-10.919-36.69h107.914L155.62,151.17z"/>
</g>
<g>
</g>
<g>
</g>
<g>
</g>
<g>
</g>
<g>
</g>
<g>
</g>
<g>
</g>
<g>
</g>
<g>
</g>
<g>
</g>
<g>
</g>
<g>
</g>
<g>
</g>
<g>
</g>
<g>
</g>
</svg>
